<svg width="38" height="38" viewBox="0 0 38 38" fill="none" xmlns="http://www.w3.org/2000/svg">
<path d="M31.9374 7.46814C29.5878 6.40733 27.0682 5.62578 24.4338 5.17815C24.3859 5.16951 24.3379 5.1911 24.3132 5.23428C23.9892 5.80137 23.6303 6.54118 23.3789 7.12267C20.5455 6.70528 17.7266 6.70528 14.9512 7.12267C14.6998 6.52826 14.3279 5.80137 14.0024 5.23428C13.9777 5.19254 13.9297 5.17095 13.8818 5.17815C11.2488 5.62435 8.72927 6.4059 6.37823 7.46814C6.35788 7.47677 6.34044 7.49118 6.32886 7.50987C1.54976 14.5353 0.240562 21.388 0.882809 28.1558C0.885715 28.1889 0.904605 28.2206 0.93076 28.2407C4.08387 30.5191 7.1382 31.9024 10.1358 32.8192C10.1838 32.8336 10.2346 32.8163 10.2652 32.7775C10.9742 31.8247 11.6063 30.82 12.1483 29.7635C12.1803 29.7016 12.1497 29.6282 12.0844 29.6037C11.0818 29.2295 10.1271 28.7732 9.20876 28.2551C9.13613 28.2134 9.13031 28.1111 9.19713 28.0622C9.39038 27.9197 9.58369 27.7714 9.76821 27.6217C9.8016 27.5944 9.84812 27.5886 9.88737 27.6059C15.9204 30.3162 22.4519 30.3162 28.4137 27.6059C28.4529 27.5872 28.4995 27.593 28.5343 27.6203C28.7189 27.77 28.9121 27.9197 29.1068 28.0622C29.1737 28.1111 29.1693 28.2134 29.0967 28.2551C28.1783 28.7833 27.2237 29.2295 26.2196 29.6023C26.1542 29.6268 26.1252 29.7016 26.1572 29.7635C26.7107 30.8185 27.3428 31.8232 28.0388 32.776C28.0679 32.8163 28.1202 32.8336 28.1682 32.8192C31.1803 31.9024 34.2346 30.5191 37.3877 28.2407C37.4154 28.2206 37.4328 28.1903 37.4357 28.1572C38.2043 20.3329 36.1483 13.5364 31.9853 7.5113C31.9751 7.49118 31.9577 7.47677 31.9374 7.46814ZM13.0492 24.0349C11.2329 24.0349 9.73623 22.3941 9.73623 20.379C9.73623 18.3639 11.2038 16.7231 13.0492 16.7231C14.9091 16.7231 16.3912 18.3783 16.3621 20.379C16.3621 22.3941 14.8945 24.0349 13.0492 24.0349ZM25.2984 24.0349C23.4821 24.0349 21.9854 22.3941 21.9854 20.379C21.9854 18.3639 23.453 16.7231 25.2984 16.7231C27.1583 16.7231 28.6404 18.3783 28.6114 20.379C28.6114 22.3941 27.1583 24.0349 25.2984 24.0349Z" fill="#5865F2"/>
</svg>
