<svg width="37" height="38" viewBox="0 0 37 38" fill="none" xmlns="http://www.w3.org/2000/svg">
<path d="M36.864 19.0003C36.864 8.82063 28.6117 0.568359 18.432 0.568359C8.25227 0.568359 0 8.82063 0 19.0003C0 28.2001 6.74027 35.8256 15.552 37.2084V24.3283H10.872V19.0003H15.552V14.9395C15.552 10.32 18.3038 7.76835 22.514 7.76835C24.53 7.76835 26.64 8.12835 26.64 8.12835V12.6643H24.3158C22.0262 12.6643 21.312 14.0853 21.312 15.5443V19.0003H26.424L25.6068 24.3283H21.312V37.2084C30.1237 35.8256 36.864 28.2001 36.864 19.0003Z" fill="#1877F2"/>
<path d="M25.6068 24.3283L26.424 19.0003H21.312V15.5443C21.312 14.0867 22.0262 12.6643 24.3158 12.6643H26.64V8.12831C26.64 8.12831 24.5307 7.76831 22.514 7.76831C18.3038 7.76831 15.552 10.32 15.552 14.9395V19.0003H10.872V24.3283H15.552V37.2084C17.4604 37.5069 19.4036 37.5069 21.312 37.2084V24.3283H25.6068Z" fill="#040E14"/>
</svg>
