<svg width="38" height="38" viewBox="0 0 38 38" fill="none" xmlns="http://www.w3.org/2000/svg">
<path d="M19.0159 3.88756C23.9407 3.88756 24.5239 3.90916 26.4607 3.99556C28.2607 4.07476 29.2327 4.37716 29.8807 4.62916C30.7375 4.96035 31.3567 5.36355 31.9975 6.00435C32.6455 6.65235 33.0415 7.26435 33.3727 8.12115C33.6247 8.76915 33.9271 9.74835 34.0063 11.5411C34.0927 13.4851 34.1143 14.0683 34.1143 18.9859C34.1143 23.9107 34.0927 24.4939 34.0063 26.4307C33.9271 28.2307 33.6247 29.2027 33.3727 29.8507C33.0415 30.7075 32.6383 31.3267 31.9975 31.9675C31.3495 32.6155 30.7375 33.0115 29.8807 33.3427C29.2327 33.5947 28.2535 33.8971 26.4607 33.9763C24.5167 34.0627 23.9335 34.0843 19.0159 34.0843C14.0911 34.0843 13.5079 34.0627 11.5711 33.9763C9.77111 33.8971 8.79912 33.5947 8.15112 33.3427C7.29432 33.0115 6.67512 32.6083 6.03432 31.9675C5.38632 31.3195 4.99032 30.7075 4.65912 29.8507C4.40712 29.2027 4.10472 28.2235 4.02552 26.4307C3.93912 24.4867 3.91752 23.9035 3.91752 18.9859C3.91752 14.0611 3.93912 13.4779 4.02552 11.5411C4.10472 9.74115 4.40712 8.76915 4.65912 8.12115C4.99032 7.26435 5.39352 6.64515 6.03432 6.00435C6.68232 5.35635 7.29432 4.96035 8.15112 4.62916C8.79912 4.37716 9.77831 4.07476 11.5711 3.99556C13.5079 3.90916 14.0911 3.88756 19.0159 3.88756ZM19.0159 0.568359C14.0119 0.568359 13.3855 0.589959 11.4199 0.676359C9.46151 0.762759 8.11512 1.07956 6.94872 1.53316C5.73192 2.00836 4.70232 2.63476 3.67992 3.66436C2.65032 4.68675 2.02392 5.71635 1.54872 6.92595C1.09512 8.09955 0.778323 9.43875 0.691923 11.3971C0.605523 13.3699 0.583923 13.9963 0.583923 19.0003C0.583923 24.0043 0.605523 24.6307 0.691923 26.5963C0.778323 28.5547 1.09512 29.9011 1.54872 31.0675C2.02392 32.2843 2.65032 33.3139 3.67992 34.3363C4.70232 35.3587 5.73192 35.9923 6.94152 36.4603C8.11512 36.9139 9.45431 37.2307 11.4127 37.3171C13.3783 37.4035 14.0047 37.4251 19.0087 37.4251C24.0127 37.4251 24.6391 37.4035 26.6047 37.3171C28.5631 37.2307 29.9095 36.9139 31.0759 36.4603C32.2855 35.9923 33.3151 35.3587 34.3375 34.3363C35.3599 33.3139 35.9935 32.2843 36.4615 31.0747C36.9151 29.9011 37.2319 28.5619 37.3183 26.6035C37.4047 24.6379 37.4263 24.0115 37.4263 19.0075C37.4263 14.0035 37.4047 13.3771 37.3183 11.4115C37.2319 9.45315 36.9151 8.10675 36.4615 6.94035C36.0079 5.71635 35.3815 4.68675 34.3519 3.66436C33.3295 2.64196 32.2999 2.00836 31.0903 1.54036C29.9167 1.08676 28.5775 0.769959 26.6191 0.683559C24.6463 0.589959 24.0199 0.568359 19.0159 0.568359Z" fill="#7A39CC"/>
<path d="M19.0159 9.53235C13.7887 9.53235 9.54791 13.7731 9.54791 19.0003C9.54791 24.2275 13.7887 28.4683 19.0159 28.4683C24.2431 28.4683 28.4839 24.2275 28.4839 19.0003C28.4839 13.7731 24.2431 9.53235 19.0159 9.53235ZM19.0159 25.1419C15.6247 25.1419 12.8743 22.3915 12.8743 19.0003C12.8743 15.6091 15.6247 12.8587 19.0159 12.8587C22.4071 12.8587 25.1575 15.6091 25.1575 19.0003C25.1575 22.3915 22.4071 25.1419 19.0159 25.1419Z" fill="#7A39CC"/>
<path d="M31.0687 9.15797C31.0687 10.382 30.0751 11.3684 28.8583 11.3684C27.6343 11.3684 26.6479 10.3748 26.6479 9.15797C26.6479 7.93397 27.6415 6.94757 28.8583 6.94757C30.0751 6.94757 31.0687 7.94117 31.0687 9.15797Z" fill="#7A39CC"/>
</svg>
